# This file uses centimeters as units for non-parametric coordinates.

mtllib foot_left.mtl
g default
v -1.001431 2.111928 0.130899
v -1.001431 2.273588 -0.930071
v -0.341565 2.260134 -0.929836
v -0.341565 2.210276 -0.518947
v -0.341565 2.221582 0.128985
v -0.303709 -1.682876 -0.802271
v 0.253284 -1.426229 -0.806751
v 0.253284 -1.539163 -0.546170
v 1.001432 -2.273588 -1.056296
v 1.001432 -2.265488 -0.592232
v 0.253284 -1.190660 0.910523
v -0.303709 -1.447304 0.915003
v -0.538491 -2.159462 1.279882
v 1.001432 -2.232787 1.281162
v -0.061930 1.450356 0.029086
v 0.212320 1.800276 -0.847072
v -0.077426 1.819235 -1.281162
v -0.964824 1.106791 -1.222666
v -0.964824 0.976641 -0.033555
v 0.253284 -1.329120 -0.291225
v 0.023516 1.559377 -0.243889
v -0.303709 -1.585764 -0.286745
v -0.538491 -2.200263 -1.057576
vt 0.500000 0.900000
vt 0.500000 0.800000
vt 0.525000 0.800000
vt 0.525000 0.850000
vt 0.525000 0.900000
vt 0.500000 0.800000
vt 0.525000 0.800000
vt 0.525000 0.850000
vt 0.525000 0.800000
vt 0.525000 0.850000
vt 0.525000 0.900000
vt 0.500000 0.900000
vt 0.500000 0.900000
vt 0.525000 0.900000
vt 0.525000 0.900000
vt 0.525000 0.850000
vt 0.525000 0.800000
vt 0.500000 0.800000
vt 0.500000 0.900000
vt 0.525000 0.900000
vt 0.525000 0.884422
vt 0.500000 0.900000
vt 0.500000 0.800000
vn -0.999533 -0.030205 -0.004602
vn -0.984253 -0.176013 -0.016297
vn -0.999512 -0.030989 -0.004020
vn -0.983004 -0.182494 -0.019974
vn -0.999947 -0.006869 -0.007680
vn -0.995488 -0.093249 0.017566
vn 0.013080 0.627914 -0.778173
vn -0.036958 -0.002343 -0.999314
vn -0.211196 0.291438 -0.932984
vn 0.002949 -0.084780 -0.996395
vn 0.778353 0.606356 0.162786
vn 0.975835 0.159919 -0.148903
vn 0.644143 0.759472 -0.091007
vn 0.828484 0.115618 -0.547948
vn 0.935423 0.108963 0.336319
vn 0.933533 0.157492 0.322044
vn 0.886291 0.460412 0.050098
vn 0.022865 -0.120268 0.992478
vn 0.011453 -0.136187 0.990617
vn -0.002494 -0.122648 0.992447
vn -0.001713 -0.119196 0.992869
vn -0.936437 0.349974 -0.024559
vn -0.009314 0.002759 -0.999953
vn 0.035137 0.018796 -0.999206
vn -0.009101 0.316668 -0.948493
vn 0.014817 0.294486 -0.955541
vn 0.953687 0.293261 -0.066930
vn 0.784836 0.618930 -0.030959
vn 0.986237 0.163910 -0.021674
vn 0.747882 0.663730 -0.011586
vn 0.920269 0.389263 -0.039743
vn -0.224573 0.501968 0.835221
vn -0.005414 0.360095 0.932900
vn -0.006845 0.361112 0.932498
vn 0.015648 0.345006 0.938470
vn -0.416900 0.902979 -0.104037
vn -0.416900 0.902979 -0.104037
vn -0.416900 0.902979 -0.104037
vn -0.416900 0.902979 -0.104037
vn -0.950529 0.310590 -0.005421
vn -0.948520 0.316618 -0.007961
vn -0.047569 -0.998716 0.017433
vn -0.047569 -0.998716 0.017433
vn -0.047569 -0.998716 0.017433
vn -0.047569 -0.998716 0.017433
vn 0.814004 0.580771 -0.010138
vn 0.803361 0.594944 -0.025573
vn 0.031416 -0.094597 0.995020
vn 0.047647 -0.086037 0.995152
vn -0.047569 -0.998716 0.017433
s 1
g polySurface1
usemtl lambert4SG
f 2/2/1 18/18/2 1/1/3
f 1/1/3 18/18/2 19/19/4
f 19/19/4 18/18/2 22/22/5
f 6/6/6 22/22/5 18/18/2
s 2
f 3/3/7 17/17/8 2/2/9
f 2/2/9 17/17/8 18/18/10
s 3
f 4/4/11 16/16/12 3/3/13
f 3/3/13 16/16/12 17/17/14
f 15/15/15 21/21/16 5/5/17
f 5/5/17 21/21/16 4/4/11
f 16/16/12 4/4/11 21/21/16
s 5
f 5/5/18 1/1/19 15/15/20
f 15/15/20 1/1/19 19/19/21
s 1
usemtl initialShadingGroup
f 22/22/5 6/6/6 23/23/22
s 2
f 6/6/23 7/7/24 23/23/25
f 23/23/25 7/7/24 9/9/26
s 3
f 8/8/27 10/10/28 7/7/29
f 7/7/29 10/10/28 9/9/30
f 10/10/28 8/8/27 20/20/31
s 8
f 12/12/32 13/13/33 11/11/34
f 11/11/34 13/13/33 14/14/35
s 9
f 11/11/36 20/20/37 12/12/38
f 22/22/39 12/12/38 20/20/37
s 1
f 13/13/40 12/12/41 23/23/22
f 23/23/22 12/12/41 22/22/5
s 10
f 23/23/42 10/10/43 13/13/44
f 13/13/44 10/10/43 14/14/45
s 3
f 14/14/46 10/10/28 11/11/47
f 10/10/28 20/20/31 11/11/47
usemtl lambert4SG
f 8/8/27 16/16/12 20/20/31
f 15/15/15 20/20/31 21/21/16
f 16/16/12 21/21/16 20/20/31
f 17/17/14 16/16/12 7/7/29
f 7/7/29 16/16/12 8/8/27
s 2
f 17/17/8 7/7/24 18/18/10
f 18/18/10 7/7/24 6/6/23
s 5
f 15/15/20 19/19/21 20/20/48
f 19/19/21 22/22/49 20/20/48
s 10
usemtl initialShadingGroup
f 23/23/42 9/9/50 10/10/43
