# This file uses centimeters as units for non-parametric coordinates.

mtllib hand_left.mtl
g default
v -2.098889 0.227938 -0.467252
v -2.098889 0.239445 0.191958
v -2.082678 -0.227941 0.200116
v -2.082678 -0.239447 -0.459094
v -0.326815 0.164322 -0.466141
v -0.326815 0.175829 0.193068
v -0.310604 -0.164325 0.199005
v -0.310604 -0.175831 -0.460204
v 0.814069 0.212860 -0.800456
v 0.814069 0.230185 0.192119
v 0.830281 -0.109968 0.198057
v 0.830281 -0.127293 -0.794519
v 0.814070 0.221523 -0.304168
v 0.830281 -0.118631 -0.298231
v 0.814070 0.225854 -0.056025
v 0.830281 -0.114299 -0.050087
v 0.814070 0.217191 -0.552312
v 0.830281 -0.122962 -0.546375
v 0.243628 0.305917 0.190797
v 0.259838 -0.240056 0.200327
v 1.636276 0.258872 -0.950461
v 1.636276 0.263203 -0.702317
v 1.652489 -0.076950 -0.696380
v 1.652489 -0.081281 -0.944523
v 2.082676 0.270340 -0.293462
v 2.098889 -0.069813 -0.287524
v 2.082676 0.274671 -0.045318
v 2.098889 -0.065482 -0.039380
v 1.834395 0.280492 0.288139
v 1.850607 -0.059662 0.294076
v 1.850607 -0.063993 0.045932
v 1.834395 0.276160 0.039995
v 1.934756 -0.071523 -0.385447
v 1.934756 -0.075854 -0.633590
v 1.918543 0.264299 -0.639528
v 1.918543 0.268631 -0.391384
v 0.117234 0.216124 0.944049
v 0.126051 -0.124030 0.949986
v -0.193027 0.188945 0.944523
v -0.184209 -0.151208 0.950461
v -1.499249 0.429931 0.188633
v -1.499249 0.418425 -0.470577
v -1.483038 -0.429931 -0.455769
v -1.483038 -0.418425 0.203441
v 0.243628 0.288592 -0.801778
v 0.259839 -0.257381 -0.792248
v -2.098889 0.237463 0.078424
v -2.082678 -0.229922 0.086583
v 0.830281 -0.111950 0.084523
v 0.814069 0.228204 0.078586
v 1.850607 -0.063334 0.083675
v 1.834395 0.276819 0.077737
v -1.499249 0.427950 0.075099
v -1.483038 -0.420407 0.089907
v -0.326815 0.173847 0.079535
v 0.243628 0.303935 0.077264
v -0.310604 -0.166306 0.085472
v 0.259838 -0.242037 0.086794
v -2.098889 0.237168 0.061518
v -2.082678 -0.230217 0.069677
v -1.483038 -0.420702 0.073001
v -0.326815 0.173552 0.062629
v 0.830281 -0.112245 0.067617
v 0.814069 0.227908 0.061680
v 1.850607 -0.063629 0.066769
v 1.834395 0.276524 0.060831
v -1.499249 0.427655 0.058193
v 0.243628 0.303640 0.060358
v -0.310604 -0.166601 0.068566
v 0.259838 -0.242332 0.069888
vt 0.525000 0.800000
vt 0.525000 0.850000
vt 0.525000 0.850000
vt 0.525000 0.800000
vt 0.525000 0.800000
vt 0.525000 0.850000
vt 0.525000 0.850000
vt 0.525000 0.800000
vt 0.525000 0.800000
vt 0.525000 0.850000
vt 0.525000 0.850000
vt 0.525000 0.800000
vt 0.525000 0.825000
vt 0.525000 0.825000
vt 0.525000 0.837500
vt 0.525000 0.837500
vt 0.525000 0.812500
vt 0.525000 0.812500
vt 0.525000 0.850000
vt 0.525000 0.850000
vt 0.525000 0.800000
vt 0.525000 0.812500
vt 0.525000 0.812500
vt 0.525000 0.800000
vt 0.525000 0.825000
vt 0.525000 0.825000
vt 0.525000 0.837500
vt 0.525000 0.837500
vt 0.525000 0.850000
vt 0.525000 0.850000
vt 0.525000 0.837500
vt 0.525000 0.837500
vt 0.525000 0.825000
vt 0.525000 0.812500
vt 0.525000 0.812500
vt 0.525000 0.825000
vt 0.525000 0.850000
vt 0.525000 0.850000
vt 0.525000 0.850000
vt 0.525000 0.850000
vt 0.525000 0.850000
vt 0.525000 0.800000
vt 0.525000 0.800000
vt 0.525000 0.850000
vt 0.525000 0.800000
vt 0.525000 0.800000
vt 0.525000 0.841389
vt 0.525000 0.841389
vt 0.525000 0.844281
vt 0.525000 0.844281
vt 0.525000 0.839401
vt 0.525000 0.839401
vt 0.525000 0.841389
vt 0.525000 0.841389
vt 0.525000 0.841389
vt 0.525000 0.844281
vt 0.525000 0.841389
vt 0.525000 0.844281
vt 0.525000 0.840107
vt 0.525000 0.840107
vt 0.525000 0.840107
vt 0.525000 0.840107
vt 0.525000 0.843429
vt 0.525000 0.843429
vt 0.525000 0.838550
vt 0.525000 0.838550
vt 0.525000 0.840107
vt 0.525000 0.843430
vt 0.525000 0.840107
vt 0.525000 0.843430
vn -0.302801 0.952909 -0.016633
vn 0.020783 0.999632 -0.017449
vn -0.302801 0.952909 -0.016633
vn 0.036807 0.999170 -0.017441
vn 0.036285 0.999189 -0.017441
vn -0.302801 0.952909 -0.016633
vn -0.302801 0.952909 -0.016633
vn 0.035882 0.999204 -0.017441
vn -0.302797 -0.952910 0.016633
vn 0.035882 -0.999204 0.017441
vn -0.302798 -0.952910 0.016633
vn 0.035882 -0.999204 0.017441
vn -0.302798 -0.952910 0.016634
vn 0.035060 -0.999233 0.017442
vn -0.302798 -0.952910 0.016634
vn 0.035882 -0.999204 0.017441
vn 0.998866 0.047595 -0.000831
vn 0.998866 0.047595 -0.000831
vn 0.998866 0.047595 -0.000831
vn 0.998866 0.047595 -0.000831
vn 0.000000 0.017452 0.999848
vn 0.000000 0.017452 0.999848
vn -0.000000 0.017452 0.999848
vn -0.000000 0.017452 0.999848
vn -0.000000 -0.017452 -0.999848
vn 0.000000 -0.017453 -0.999848
vn -0.000000 -0.017453 -0.999848
vn 0.000000 -0.017453 -0.999848
vn 0.998866 0.047594 -0.000831
vn 0.998866 0.047595 -0.000831
vn 0.998866 0.047595 -0.000831
vn 0.998866 0.047596 -0.000831
vn 0.998867 0.047591 -0.000831
vn 0.998867 0.047590 -0.000831
vn 0.998867 0.047590 -0.000831
vn 0.998867 0.047590 -0.000831
vn 0.998867 0.047590 -0.000831
vn 0.998867 0.047590 -0.000831
vn 0.998867 0.047592 -0.000830
vn 0.998867 0.047591 -0.000830
vn 0.998866 0.047595 -0.000831
vn 0.998866 0.047595 -0.000831
vn 0.998866 0.047595 -0.000831
vn 0.998866 0.047595 -0.000831
vn -0.059034 0.998104 -0.017422
vn -0.059034 0.998104 -0.017422
vn -0.059034 0.998104 -0.017422
vn -0.059034 0.998104 -0.017422
vn 0.178030 0.025655 0.983691
vn 0.178031 0.025656 0.983691
vn 0.178030 0.025655 0.983691
vn 0.178031 0.025656 0.983690
vn 0.059034 -0.998104 0.017422
vn 0.059034 -0.998104 0.017422
vn 0.059034 -0.998104 0.017422
vn 0.059034 -0.998104 0.017422
vn -0.178030 -0.025655 -0.983691
vn -0.178030 -0.025656 -0.983691
vn -0.178030 -0.025656 -0.983691
vn -0.178030 -0.025656 -0.983691
vn 0.009093 -0.017018 -0.999814
vn 0.009093 -0.017018 -0.999814
vn 0.009093 -0.017018 -0.999814
vn 0.009093 -0.017018 -0.999814
vn -0.038300 0.999114 -0.017440
vn -0.038300 0.999114 -0.017440
vn -0.038299 0.999114 -0.017440
vn -0.038299 0.999114 -0.017440
vn -0.009093 0.017018 0.999814
vn -0.009093 0.017018 0.999814
vn -0.009093 0.017018 0.999814
vn -0.009093 0.017018 0.999814
vn 0.038300 -0.999114 0.017440
vn 0.038300 -0.999114 0.017440
vn 0.038300 -0.999114 0.017440
vn 0.038300 -0.999114 0.017440
vn -0.094315 0.012881 0.995459
vn -0.094315 0.012881 0.995459
vn -0.094315 0.012881 0.995459
vn -0.094315 0.012881 0.995459
vn 0.047600 -0.998714 0.017433
vn 0.047600 -0.998714 0.017433
vn 0.047600 -0.998714 0.017433
vn 0.047600 -0.998714 0.017434
vn 0.047600 -0.998714 0.017433
vn 0.047600 -0.998714 0.017433
vn 0.047600 -0.998714 0.017432
vn 0.047600 -0.998714 0.017429
vn 0.094314 -0.012881 -0.995459
vn 0.094314 -0.012881 -0.995459
vn 0.094314 -0.012881 -0.995459
vn 0.094314 -0.012881 -0.995459
vn -0.047600 0.998714 -0.017430
vn -0.047600 0.998714 -0.017432
vn -0.047600 0.998714 -0.017428
vn -0.047600 0.998714 -0.017433
vn -0.047600 0.998714 -0.017433
vn -0.047600 0.998714 -0.017434
vn -0.047600 0.998714 -0.017433
vn -0.047600 0.998714 -0.017434
vn 0.043981 -0.998880 0.017435
vn 0.043981 -0.998880 0.017435
vn 0.043981 -0.998880 0.017435
vn 0.043981 -0.998880 0.017435
vn -0.077809 -0.021106 -0.996745
vn -0.077808 -0.021107 -0.996745
vn -0.077809 -0.021107 -0.996745
vn -0.077808 -0.021107 -0.996745
vn -0.043981 0.998880 -0.017435
vn -0.043981 0.998880 -0.017435
vn -0.043981 0.998880 -0.017435
vn -0.043981 0.998880 -0.017435
vn 0.077808 0.021107 0.996745
vn 0.077808 0.021107 0.996745
vn 0.077808 0.021107 0.996745
vn 0.077808 0.021107 0.996745
vn -0.123046 0.992228 0.018517
vn 0.082559 0.996434 -0.017394
vn 0.114270 0.993299 -0.017338
vn 0.041979 0.998966 -0.017437
vn 0.000000 0.017453 0.999848
vn -0.000000 0.017452 0.999848
vn -0.000000 0.017452 0.999848
vn -0.000000 0.017452 0.999848
vn 0.131625 0.991149 -0.017301
vn 0.131625 0.991149 -0.017300
vn 0.131625 0.991149 -0.017300
vn 0.131625 0.991149 -0.017301
vn 0.131624 0.991149 -0.017301
vn 0.131624 0.991149 -0.017300
vn 0.131625 0.991149 -0.017300
vn 0.131625 0.991149 -0.017301
vn 0.131625 0.991149 -0.017301
vn 0.131625 0.991149 -0.017301
vn 0.131625 0.991149 -0.017301
vn -0.221659 0.973085 0.063030
vn -0.163729 0.985527 0.043932
vn -0.087266 0.996183 -0.001852
vn -0.222372 0.974813 -0.017016
vn -0.222372 0.974813 -0.017015
vn -0.222372 0.974813 -0.017015
vn 0.000000 0.017452 0.999848
vn -0.000000 0.017452 0.999848
vn -0.000000 0.017452 0.999848
vn -0.000000 0.017452 0.999848
vn -0.186258 -0.026020 -0.982156
vn -0.155752 -0.023119 -0.987526
vn -0.503062 -0.031963 -0.863659
vn -0.502022 -0.029993 -0.864335
vn 0.984785 0.032220 0.170761
vn 0.984875 0.031512 0.170374
vn 0.985020 0.030366 0.169747
vn 0.985253 0.028484 0.168718
vn -0.983441 -0.043799 0.175854
vn -0.984129 -0.038177 0.173299
vn -0.985243 -0.028318 0.168802
vn -0.985830 -0.022655 0.166212
vn -0.131023 -0.984963 0.112611
vn -0.034561 -0.996691 0.073574
vn -0.012501 -0.997401 0.070958
vn 0.087268 -0.996181 0.002710
vn 0.051424 -0.998525 0.017429
vn 0.101826 -0.994651 0.017361
vn 0.101826 -0.994651 0.017361
vn 0.000000 0.017452 0.999848
vn 0.000000 0.017452 0.999848
vn -0.131623 -0.991149 0.017301
vn -0.131623 -0.991149 0.017300
vn -0.131623 -0.991149 0.017298
vn 0.222371 -0.974814 0.017016
vn 0.222371 -0.974814 0.017012
vn 0.222371 -0.974814 0.017013
vn 0.222370 -0.974814 0.017013
vn 0.222371 -0.974814 0.017012
vn 0.222370 -0.974814 0.017016
vn 0.222370 -0.974814 0.017016
vn 0.222370 -0.974814 0.017016
vn 0.222371 -0.974814 0.017015
vn 0.222371 -0.974814 0.017015
vn 0.222371 -0.974814 0.017016
vn -0.000000 -0.017452 -0.999848
vn -0.000000 -0.017452 -0.999848
vn -0.000000 -0.017452 -0.999848
vn 0.000000 -0.017452 -0.999848
s 1
g polySurface1
usemtl lambert4SG
f 2/2/1 41/41/2 47/47/3
f 47/47/3 41/41/2 53/53/4 67/67/5
f 59/59/6 47/47/3 67/67/5 1/1/7
f 67/67/5 42/42/8 1/1/7
s 2
f 4/4/9 43/43/10 60/60/11
f 43/43/10 61/61/12 60/60/11
f 48/48/13 60/60/11 61/61/12 54/54/14 3/3/15
f 54/54/14 44/44/16 3/3/15
s 3
f 21/21/17 22/22/18 24/24/19
f 24/24/19 22/22/18 23/23/20
s 4
f 44/44/21 41/41/22 3/3/23
f 3/3/23 41/41/22 2/2/24
s 5
f 1/1/25 42/42/26 4/4/27
f 4/4/27 42/42/26 43/43/28
s 6
f 26/25/29 25/26/30 28/28/31
f 28/28/31 25/26/30 27/27/32
s 7
f 29/29/33 30/30/34 52/52/35
f 66/66/36 52/52/35 30/30/34 51/51/37 65/65/38
f 66/66/36 65/65/38 32/32/39
f 65/65/38 31/31/40 32/32/39
s 8
f 33/33/41 34/34/42 36/36/43
f 36/36/43 34/34/42 35/35/44
s 9
f 17/17/45 22/22/46 9/9/47
f 9/9/47 22/22/46 21/21/48
s 10
f 18/18/49 23/23/50 17/17/51
f 17/17/51 23/23/50 22/22/52
s 11
f 18/18/53 12/12/54 23/23/55
f 23/23/55 12/12/54 24/24/56
s 12
f 12/12/57 9/9/58 24/24/59
f 24/24/59 9/9/58 21/21/60
s 13
f 13/13/61 25/26/62 14/14/63
f 14/14/63 25/26/62 26/25/64
s 14
f 13/13/65 15/15/66 25/26/67
f 25/26/67 15/15/66 27/27/68
s 15
f 15/15/69 16/16/70 27/27/71
f 27/27/71 16/16/70 28/28/72
s 16
f 14/14/73 26/25/74 16/16/75
f 16/16/75 26/25/74 28/28/76
s 17
f 10/10/77 11/11/78 29/29/79
f 29/29/79 11/11/78 30/30/80
s 18
f 30/30/81 11/11/82 51/51/83
f 51/51/83 11/11/82 49/49/84 63/63/85 65/65/86
f 16/16/87 31/31/88 63/63/85
f 65/65/86 63/63/85 31/31/88
s 19
f 16/16/89 15/15/90 31/31/91
f 31/31/91 15/15/90 32/32/92
s 20
f 15/15/93 64/64/94 32/32/95
f 29/29/96 52/52/97 10/10/98
f 32/32/95 64/64/94 66/66/99
f 52/52/97 66/66/99 64/64/94 50/50/100 10/10/98
s 22
f 14/14/101 18/18/102 33/33/103
f 33/33/103 18/18/102 34/34/104
s 23
f 17/17/105 35/35/106 18/18/107
f 18/18/107 35/35/106 34/34/108
s 24
f 13/13/109 36/36/110 17/17/111
f 17/17/111 36/36/110 35/35/112
s 25
f 13/13/113 14/14/114 36/36/115
f 36/36/115 14/14/114 33/33/116
s 1
f 41/41/2 6/6/117 53/53/4
f 67/67/5 53/53/4 6/6/117 55/55/118 62/62/119
f 62/62/119 5/5/120 67/67/5
f 5/5/120 42/42/8 67/67/5
s 26
f 40/40/121 38/37/122 39/39/123
f 39/39/123 38/37/122 37/38/124
s 27
f 9/9/125 45/45/126 17/17/127
f 45/45/126 68/68/128 17/17/127
f 17/17/127 68/68/128 13/13/129
f 13/13/129 68/68/128 15/15/130
f 15/15/130 68/68/128 64/64/131
f 50/50/132 64/64/131 68/68/128 56/56/133 10/10/134
f 56/56/133 19/19/135 10/10/134
s 1
f 19/19/136 6/6/117 37/38/137
f 37/38/137 6/6/117 39/39/138
f 6/6/117 19/19/136 56/56/139 68/68/140
f 68/68/140 45/45/141 6/6/117
f 55/55/118 6/6/117 45/45/141 62/62/119
f 45/45/141 5/5/120 62/62/119
s 29
f 10/10/142 19/19/143 11/11/144
f 11/11/144 19/19/143 20/20/145
s 5
f 8/8/146 5/5/147 46/46/148
f 46/46/148 5/5/147 45/45/149
s 31
f 20/20/150 19/19/151 38/37/152
f 38/37/152 19/19/151 37/38/153
s 32
f 6/6/154 7/7/155 39/39/156
f 39/39/156 7/7/155 40/40/157
s 2
f 20/20/158 38/37/159 7/7/160
f 7/7/160 38/37/159 40/40/161
s 5
f 42/42/26 5/5/147 43/43/28
f 43/43/28 5/5/147 8/8/146
s 2
f 43/43/10 8/8/162 61/61/12
f 8/8/162 69/69/163 61/61/12
f 54/54/14 61/61/12 69/69/163 57/57/164 7/7/160
f 7/7/160 44/44/16 54/54/14
s 4
f 41/41/22 44/44/21 6/6/165
f 6/6/165 44/44/21 7/7/166
s 2
f 46/46/167 70/70/168 8/8/162
f 8/8/162 70/70/168 69/69/163
f 57/57/164 69/69/163 70/70/168 58/58/169 7/7/160
f 58/58/169 20/20/158 7/7/160
s 34
f 11/11/170 20/20/171 49/49/172
f 63/63/173 49/49/172 20/20/171 58/58/174 70/70/175
f 63/63/173 70/70/175 16/16/176
f 70/70/175 46/46/177 16/16/176
f 16/16/176 46/46/177 14/14/178
f 14/14/178 46/46/177 18/18/179
f 46/46/177 12/12/180 18/18/179
s 35
f 46/46/181 45/45/182 12/12/183
f 12/12/183 45/45/182 9/9/184
