# This file uses centimeters as units for non-parametric coordinates.

mtllib thight_left.mtl
g default
v 0.629334 1.186075 -1.095774
v 0.722010 1.047054 1.173192
v -0.801169 0.787351 1.177725
v -0.801169 0.764589 1.167457
v -0.801169 0.575734 -1.177725
v 0.801169 0.057326 1.073276
v 0.034870 -1.186075 0.822745
v 0.034870 -1.024415 -0.238225
v 0.694737 -1.037869 -0.237990
v 0.694737 -1.087728 0.172899
v 0.801169 0.226404 -0.767463
v -0.445895 0.021765 -0.763891
v 0.716992 1.012958 0.513496
v 0.694737 -1.076421 0.820831
v -0.445895 -0.147314 1.076848
vt 0.525000 0.800000
vt 0.525000 0.900000
vt 0.500000 0.900000
vt 0.500000 0.900000
vt 0.500000 0.800000
vt 0.525000 0.900000
vt 0.500000 0.900000
vt 0.500000 0.800000
vt 0.525000 0.800000
vt 0.525000 0.850000
vt 0.525000 0.800000
vt 0.500000 0.800000
vt 0.525000 0.850000
vt 0.525000 0.900000
vt 0.500000 0.900000
vn 0.996653 0.080900 -0.011763
vn 0.999616 0.027427 -0.003902
vn 0.993544 0.112687 -0.013105
vn 0.999958 -0.000565 -0.009107
vn 0.985772 0.164182 -0.036034
vn 0.019816 -0.098854 0.994905
vn -0.054400 -0.257441 0.964762
vn -0.002157 -0.209879 0.977725
vn -0.055382 -0.254055 0.965603
vn 0.028509 -0.156502 0.987266
vn -0.915250 -0.400367 -0.044984
vn -0.897713 -0.440561 0.004310
vn -0.898738 -0.438361 -0.010452
vn -0.854882 -0.517148 0.041646
vn 0.036186 -0.375436 -0.926142
vn 0.122741 -0.406346 -0.905438
vn 0.150785 -0.397280 -0.905225
vn 0.249681 -0.471643 -0.845703
vn 0.996451 -0.084041 -0.004664
vn 0.996317 -0.085674 -0.003511
vn 0.996033 -0.088340 -0.010719
vn -0.007537 -0.385738 -0.922578
vn 0.029693 -0.404871 -0.913891
vn -0.911462 -0.406689 -0.061967
vn -0.905975 -0.420260 -0.050910
vn 0.039502 -0.220703 0.974541
vn 0.039229 -0.220545 0.974588
s 1
g polySurface1
usemtl lambert2SG
f 2/2/1 6/6/2 13/13/3
f 11/11/4 13/13/3 6/6/2
f 1/1/5 13/13/3 11/11/4
s 2
f 2/2/6 3/3/7 6/6/8
f 3/3/7 4/4/9 6/6/8
f 4/4/9 15/15/10 6/6/8
s 3
f 15/15/11 4/4/12 12/12/13
f 12/12/13 4/4/12 5/5/14
s 4
f 11/11/15 12/12/16 1/1/17
f 1/1/17 12/12/16 5/5/18
s 1
usemtl lambert4SG
f 10/10/19 11/11/4 14/14/20
f 14/14/20 11/11/4 6/6/2
f 9/9/21 11/11/4 10/10/19
s 4
f 9/9/22 8/8/23 11/11/15
f 11/11/15 8/8/23 12/12/16
s 3
f 7/7/24 15/15/11 8/8/25
f 8/8/25 15/15/11 12/12/13
s 2
f 14/14/26 6/6/8 7/7/27
f 7/7/27 6/6/8 15/15/10
