# This file uses centimeters as units for non-parametric coordinates.

mtllib thigh_right.mtl
g default
v 0.801169 0.787351 1.177725
v 0.801169 0.764589 1.167457
v 0.801169 0.575734 -1.177725
v -0.629334 1.186075 -1.095774
v -0.722010 1.047054 1.173192
v -0.801169 0.057326 1.073276
v -0.034870 -1.186075 0.822745
v -0.034870 -1.024415 -0.238225
v -0.694737 -1.037869 -0.237990
v -0.694737 -1.087728 0.172899
v -0.801169 0.226404 -0.767463
v 0.445895 0.021765 -0.763891
v -0.694737 -1.076421 0.820831
v -0.716992 1.012958 0.513496
v 0.445895 -0.147314 1.076848
vt 0.525000 0.900000
vt 0.525000 0.900000
vt 0.500000 0.800000
vt 0.500000 0.900000
vt 0.525000 0.800000
vt 0.525000 0.850000
vt 0.525000 0.900000
vt 0.525000 0.800000
vt 0.525000 0.800000
vt 0.525000 0.850000
vt 0.500000 0.900000
vt 0.500000 0.900000
vt 0.500000 0.800000
vt 0.500000 0.900000
vt 0.500000 0.800000
vn -0.996653 0.080901 -0.011763
vn -0.994188 0.107526 -0.005263
vn -0.999993 -0.003334 -0.001444
vn -0.985772 0.164182 -0.036034
vn -0.999083 0.040043 -0.015158
vn -0.019816 -0.098854 0.994905
vn -0.027298 -0.147103 0.988744
vn -0.012762 -0.114119 0.993385
vn -0.006792 -0.116861 0.993125
vn -0.027740 -0.151798 0.988022
vn 0.854882 -0.517148 0.041646
vn 0.918545 -0.394947 -0.017066
vn 0.885971 -0.463741 0.000136
vn 0.920329 -0.389105 -0.039890
vn -0.049852 -0.362991 -0.930458
vn -0.117400 -0.370998 -0.921183
vn -0.125258 -0.420377 -0.898662
vn -0.249681 -0.471643 -0.845702
vn -0.995587 -0.093827 0.001637
vn -0.996102 -0.088019 -0.005810
vn -0.996185 -0.086871 -0.008302
vn 0.007537 -0.385738 -0.922578
vn -0.036439 -0.408262 -0.912137
vn 0.903272 -0.426632 -0.045672
vn 0.911463 -0.406689 -0.061967
vn -0.039503 -0.220703 0.974541
vn -0.039132 -0.220488 0.974604
s 1
g polySurface1
usemtl lambert2SG
f 5/1/1 14/10/2 6/2/3
f 4/9/4 11/8/5 14/10/2
f 14/10/2 11/8/5 6/2/3
s 2
f 5/1/6 6/2/7 1/11/8
f 1/11/8 6/2/7 2/12/9
f 6/2/7 15/14/10 2/12/9
s 3
f 3/15/11 2/12/12 12/13/13
f 12/13/13 2/12/12 15/14/14
s 4
f 11/8/15 4/9/16 12/13/17
f 12/13/17 4/9/16 3/15/18
s 1
usemtl lambert4SG
f 13/7/19 6/2/3 10/6/20
f 10/6/20 6/2/3 9/5/21
f 9/5/21 6/2/3 11/8/5
s 4
f 9/5/22 11/8/15 8/3/23
f 8/3/23 11/8/15 12/13/17
s 3
f 12/13/13 15/14/14 8/3/24
f 8/3/24 15/14/14 7/4/25
s 2
f 13/7/26 7/4/27 6/2/7
f 6/2/7 7/4/27 15/14/10
