# This file uses centimeters as units for non-parametric coordinates.

mtllib upperarm_right.mtl
g default
v 0.521067 -0.386508 -0.355199
v 0.708263 0.279757 -0.134984
v -0.931648 0.199671 -0.303610
v -0.947859 -0.267714 -0.295452
v 0.066447 0.459517 0.351264
v 0.066447 0.445006 -0.193760
v -0.193455 -0.459517 -0.292104
v 0.947859 0.346205 0.353242
v 0.521067 -0.373923 0.365812
v -0.931648 0.211178 0.355599
v -0.947859 -0.256208 0.363757
v -0.193455 -0.448010 0.367105
vt 0.525000 0.800000
vt 0.525000 0.800000
vt 0.525000 0.850000
vt 0.525000 0.850000
vt 0.525000 0.850000
vt 0.525000 0.800000
vt 0.525000 0.850000
vt 0.525000 0.850000
vt 0.525000 0.800000
vt 0.525000 0.850000
vt 0.525000 0.800000
vt 0.525000 0.800000
vn 0.125513 0.972936 -0.194013
vn 0.189541 0.975635 -0.110499
vn 0.046342 0.995388 -0.083995
vn -0.077746 0.996697 -0.023485
vn 0.000000 0.017452 0.999848
vn -0.000000 0.017452 0.999848
vn -0.000000 0.017452 0.999848
vn 0.000000 0.017452 0.999848
vn 0.103150 -0.994514 0.017359
vn 0.103150 -0.994514 0.017359
vn -0.072771 -0.997197 0.017406
vn -0.072771 -0.997197 0.017406
vn -0.003998 0.067358 -0.997721
vn 0.048650 0.164368 -0.985199
vn 0.028097 0.205298 -0.978296
vn 0.156529 0.270031 -0.950043
vn -0.236903 0.971385 -0.016956
vn -0.239193 0.970736 -0.021392
vn -0.000000 -0.017452 -0.999848
vn 0.044603 0.032521 -0.998475
vn -0.246440 -0.969011 0.016914
vn -0.246440 -0.969011 0.016914
vn 0.000000 0.017452 0.999848
vn 0.000000 0.017452 0.999848
s 1
g polySurface1
usemtl lambert4SG
f 8/3/1 2/2/2 5/4/3
f 5/4/3 2/2/2 6/1/4
s 2
f 8/3/5 5/4/6 9/5/7
f 9/5/7 5/4/6 12/7/8
s 3
f 1/12/9 9/5/10 7/6/11
f 7/6/11 9/5/10 12/7/12
s 4
f 7/6/13 6/1/14 1/12/15
f 1/12/15 6/1/14 2/2/16
s 1
f 3/9/17 10/8/18 6/1/4
f 6/1/4 10/8/18 5/4/3
s 4
f 4/11/19 3/9/20 7/6/13
f 7/6/13 3/9/20 6/1/14
s 3
f 4/11/21 7/6/11 11/10/22
f 7/6/11 12/7/12 11/10/22
s 2
f 5/4/6 10/8/23 12/7/8
f 12/7/8 10/8/23 11/10/24
