# This file uses centimeters as units for non-parametric coordinates.

mtllib upperarm_left.mtl
g default
v -0.521067 -0.373923 0.365812
v -0.708263 0.279757 -0.134984
v -0.521067 -0.386509 -0.355199
v 0.931648 0.199671 -0.303610
v 0.947859 -0.256208 0.363757
v 0.947859 -0.267714 -0.295452
v -0.066447 0.459517 0.351264
v -0.066447 0.445006 -0.193760
v 0.193455 -0.459517 -0.292104
v -0.947859 0.346205 0.353242
v 0.931648 0.211177 0.355599
v 0.193455 -0.448010 0.367105
vt 0.525000 0.850000
vt 0.525000 0.800000
vt 0.525000 0.800000
vt 0.525000 0.800000
vt 0.525000 0.850000
vt 0.525000 0.800000
vt 0.525000 0.850000
vt 0.525000 0.800000
vt 0.525000 0.800000
vt 0.525000 0.850000
vt 0.525000 0.850000
vt 0.525000 0.850000
vn -0.125513 0.972937 -0.194013
vn -0.046342 0.995388 -0.083995
vn -0.189541 0.975635 -0.110499
vn 0.077746 0.996697 -0.023485
vn -0.000000 0.017452 0.999848
vn -0.000000 0.017452 0.999848
vn 0.000000 0.017452 0.999848
vn -0.000000 0.017452 0.999848
vn 0.072771 -0.997197 0.017406
vn 0.072771 -0.997197 0.017406
vn -0.103150 -0.994514 0.017359
vn -0.103150 -0.994514 0.017359
vn -0.156528 0.270031 -0.950043
vn -0.048650 0.164368 -0.985199
vn -0.028097 0.205298 -0.978296
vn 0.003998 0.067358 -0.997721
vn 0.236903 0.971385 -0.016956
vn 0.239193 0.970736 -0.021392
vn -0.044603 0.032521 -0.998475
vn 0.000000 -0.017452 -0.999848
vn 0.246440 -0.969011 0.016914
vn 0.246440 -0.969011 0.016914
vn -0.000000 0.017452 0.999848
vn -0.000000 0.017452 0.999848
s 1
g polySurface1
usemtl lambert4SG
f 10/10/1 7/7/2 2/2/3
f 7/7/2 8/8/4 2/2/3
s 2
f 10/10/5 1/1/6 7/7/7
f 7/7/7 1/1/6 12/12/8
s 3
f 9/9/9 12/12/10 3/3/11
f 12/12/10 1/1/12 3/3/11
s 4
f 2/2/13 8/8/14 3/3/15
f 3/3/15 8/8/14 9/9/16
s 1
f 4/4/17 8/8/4 11/11/18
f 8/8/4 7/7/2 11/11/18
s 4
f 8/8/14 4/4/19 9/9/16
f 9/9/16 4/4/19 6/6/20
s 3
f 5/5/21 12/12/10 6/6/22
f 12/12/10 9/9/9 6/6/22
s 2
f 7/7/7 12/12/8 11/11/23
f 11/11/23 12/12/8 5/5/24
